<svg width="304" height="320" viewBox="0 0 304 320" fill="none" xmlns="http://www.w3.org/2000/svg">
<path d="M255.755 178.281C260.442 179.936 265.614 177.484 266.955 172.698C274.072 147.305 273.668 120.319 265.688 95.048C256.802 66.909 239.006 42.4234 214.984 25.286C190.961 8.14852 162.017 -0.710894 132.518 0.044578C103.019 0.800051 74.5664 11.1294 51.4529 29.474C28.3394 47.8186 11.8195 73.1831 4.38597 101.74C-3.04758 130.297 -0.991461 160.497 10.2441 187.783C21.4796 215.069 41.285 237.96 66.6715 253.002C89.4704 266.512 115.66 273.032 142.006 271.867C146.971 271.648 150.534 267.168 149.986 262.227L147.218 237.238C146.67 232.298 142.217 228.783 137.247 228.85C120.227 229.078 103.407 224.623 88.664 215.887C71.3305 205.616 57.8079 189.986 50.1365 171.356C42.4651 152.726 41.0612 132.106 46.1367 112.608C51.2121 93.1099 62.4916 75.7916 78.273 63.2662C94.0544 50.7409 113.481 43.6883 133.623 43.1724C153.764 42.6566 173.527 48.7056 189.928 60.4067C206.33 72.1078 218.481 88.8261 224.548 108.039C229.708 124.38 230.229 141.772 226.142 158.296C224.948 163.121 227.36 168.256 232.047 169.911L255.755 178.281Z" fill="url(#paint0_linear_38_191)"/>
<path d="M149.839 176.274C147.985 165.49 158.664 156.843 168.827 160.9L269.303 201.011C281.32 205.808 280.955 222.943 268.745 227.224L225.317 242.451C222.275 243.518 219.695 245.601 218.012 248.348L193.883 287.728C187.133 298.744 170.336 295.518 168.148 282.786L149.839 176.274Z" fill="#1EC4E5"/>
<defs>
<linearGradient id="paint0_linear_38_191" x1="186.5" y1="118.5" x2="52" y2="227.5" gradientUnits="userSpaceOnUse">
<stop stop-color="#1E88E5"/>
<stop offset="0.663462" stop-color="#4F64F1"/>
<stop offset="1" stop-color="#0628C1"/>
</linearGradient>
</defs>
</svg>
